<?xml version="1.0" encoding="UTF-8"?>
<svg width="99px" height="32px" viewBox="0 0 99 32" version="1.1" xmlns="http://www.w3.org/2000/svg" xmlns:xlink="http://www.w3.org/1999/xlink">
    <title>Group</title>
    <g id="Page-1" stroke="none" stroke-width="1" fill="none" fill-rule="evenodd">
        <g id="Group" transform="translate(0.000000, -18.000000)" fill="#3d3d3d">
            <polygon id="Triangle" points="18 19 36 50 0 50"></polygon>
            <path d="M52.8181818,50 L52.8181818,37.8818182 L58.3690909,37.8818182 L66.3045455,50 L70.7609091,50 L62.7472727,37.7645455 C65.3272727,37.5039394 67.2492424,36.67 68.5131818,35.2627273 C69.7771212,33.8554545 70.4090909,31.9009091 70.4090909,29.3990909 L70.4090909,29.3990909 L70.4090909,26.9754545 C70.4090909,24.2130303 69.6012121,22.1477273 67.9854545,20.7795455 C66.369697,19.4113636 63.9330303,18.7272727 60.6754545,18.7272727 L60.6754545,18.7272727 L48.9090909,18.7272727 L48.9090909,50 L52.8181818,50 Z M60.6363636,34.4418182 L52.8181818,34.4418182 L52.8181818,22.2454545 L60.6363636,22.2454545 C62.7472727,22.2454545 64.2522727,22.6037879 65.1513636,23.3204545 C66.0504545,24.0371212 66.5,25.2554545 66.5,26.9754545 L66.5,26.9754545 L66.5,29.3990909 C66.5,31.2233333 66.0504545,32.5198485 65.1513636,33.2886364 C64.2522727,34.0574242 62.7472727,34.4418182 60.6363636,34.4418182 L60.6363636,34.4418182 Z M80.1818182,50 L80.1818182,35.1454545 L81.6281818,35.1454545 L93.3163636,50 L98.0072727,50 L84.7163636,33.1127273 L98.1245455,18.7272727 L93.59,18.7272727 L81.5109091,31.6272727 L80.1818182,31.6272727 L80.1818182,18.7272727 L76.2727273,18.7272727 L76.2727273,50 L80.1818182,50 Z" id="RK" fill-rule="nonzero"></path>
        </g>
    </g>
</svg>
